<svg width="30" height="40" viewBox="0 0 30 40" fill="none" xmlns="http://www.w3.org/2000/svg">
<path d="M29.904 34.9306L24.067 21.0197L28.5132 19.0891C29.2086 18.8779 29.4404 18.2443 29.2086 17.8217L27.3541 13.1748L29.2086 8.52793C29.4404 8.10552 28.9768 7.47178 28.5132 7.26057L23.6451 5.14839L21.3268 0.71282C21.095 0.0792023 20.3996 -0.132004 19.9359 0.0792023L14.836 1.76897L9.73616 0.0792023C9.27256 -0.132004 8.57704 0.290408 8.34524 0.71282L6.02713 5.14839L1.15899 7.26069C0.463595 7.4719 0.231798 8.10552 0.463595 8.52805L2.31811 13.1749L0.463595 17.8217C0.231798 18.2441 0.695392 18.8779 1.15899 19.0891L5.54036 20.9901L0 34.7194C0 35.1418 2.2233e-07 35.5642 0.231798 35.7756C0.463595 36.198 0.92719 36.198 1.39092 36.198L6.95445 35.3532L10.4317 39.3663C10.6635 39.5775 10.8953 39.7887 11.3589 39.7887H11.5907C12.0543 39.7887 12.2861 39.5775 12.5179 39.1551L14.8661 33.3381L17.3859 39.3663C17.6177 39.7887 17.8495 39.9999 18.3131 39.9999H18.5449C19.0085 39.9999 19.2402 39.7887 19.472 39.5775L22.9493 35.5644L28.5128 36.4092C28.9764 36.4092 29.44 36.198 29.6719 35.9868C29.904 35.7755 30.1358 35.353 29.904 34.9306ZM3.24543 8.73926L7.64985 6.83828C7.88164 6.83828 8.11344 6.62707 8.11344 6.41587L10.1998 2.40271L14.6042 3.88128C14.836 3.88128 15.0678 3.88128 15.2996 3.88128L19.704 2.40271L21.7903 6.41587C21.7903 6.62707 22.0221 6.83828 22.2539 6.83828L26.6583 8.73926L25.0356 12.7524C25.0356 12.9636 25.0356 13.1748 25.0356 13.386L26.6583 17.3992L22.2539 19.3002C22.0221 19.3002 21.7903 19.5114 21.7903 19.7226L19.704 23.7357L15.2996 22.2572C15.0678 22.2572 15.0678 22.2572 14.836 22.2572C14.6042 22.2572 14.6042 22.2572 14.6042 22.2572L10.1998 23.7357L8.11344 19.7226C8.11344 19.5114 7.88164 19.3002 7.64985 19.3002L3.24543 17.3992L4.86814 13.386C4.86814 13.1748 4.86814 12.9636 4.86814 12.7524L3.24543 8.73926ZM11.1271 36.8316L8.34524 33.6633C8.11344 33.2409 7.64985 33.2409 7.18612 33.2409L2.7817 33.8745L7.07488 23.2058L8.34524 25.637C8.57704 26.2706 9.27243 26.4818 9.73616 26.2706L14.8361 24.5808L15.914 24.9378L11.1271 36.8316ZM22.4859 33.0297C22.0224 33.0297 21.5588 33.2409 21.3268 33.4521L18.545 36.6204L16.0577 30.3852L17.9795 25.6221L19.936 26.2706C20.1678 26.2706 20.1678 26.2706 20.3996 26.2706C20.6314 26.2706 21.095 26.0594 21.3268 25.637L22.6458 23.115L26.8902 33.6633L22.4859 33.0297Z" fill="black"/>
</svg>
